<svg width="20" height="20" viewBox="0 0 20 20" fill="none" xmlns="http://www.w3.org/2000/svg">
<g clip-path="url(#clip0_901_2277)">
<path d="M10.0002 5.00001V7.50001L13.3335 4.16668L10.0002 0.833344V3.33334C6.31683 3.33334 3.3335 6.31668 3.3335 10C3.3335 11.3083 3.71683 12.525 4.36683 13.55L5.5835 12.3333C5.2085 11.6417 5.00016 10.8417 5.00016 10C5.00016 7.24168 7.24183 5.00001 10.0002 5.00001ZM15.6335 6.45001L14.4168 7.66668C14.7835 8.36668 15.0002 9.15834 15.0002 10C15.0002 12.7583 12.7585 15 10.0002 15V12.5L6.66683 15.8333L10.0002 19.1667V16.6667C13.6835 16.6667 16.6668 13.6833 16.6668 10C16.6668 8.69168 16.2835 7.47501 15.6335 6.45001Z" fill="white"/>
</g>
<defs>
<clipPath id="clip0_901_2277">
<rect width="20" height="20" fill="white"/>
</clipPath>
</defs>
</svg>
