<svg width="20" height="20" viewBox="0 0 20 20" fill="none" xmlns="http://www.w3.org/2000/svg">
<g clip-path="url(#clip0_1008_261)">
<path d="M10.0002 6.66668C10.9168 6.66668 11.6668 5.91668 11.6668 5.00001C11.6668 4.08334 10.9168 3.33334 10.0002 3.33334C9.0835 3.33334 8.3335 4.08334 8.3335 5.00001C8.3335 5.91668 9.0835 6.66668 10.0002 6.66668ZM10.0002 8.33334C9.0835 8.33334 8.3335 9.08334 8.3335 10C8.3335 10.9167 9.0835 11.6667 10.0002 11.6667C10.9168 11.6667 11.6668 10.9167 11.6668 10C11.6668 9.08334 10.9168 8.33334 10.0002 8.33334ZM10.0002 13.3333C9.0835 13.3333 8.3335 14.0833 8.3335 15C8.3335 15.9167 9.0835 16.6667 10.0002 16.6667C10.9168 16.6667 11.6668 15.9167 11.6668 15C11.6668 14.0833 10.9168 13.3333 10.0002 13.3333Z" fill="white"/>
</g>
<defs>
<clipPath id="clip0_1008_261">
<rect width="20" height="20" fill="white"/>
</clipPath>
</defs>
</svg>
