<svg width="20" height="21" viewBox="0 0 20 21" fill="none" xmlns="http://www.w3.org/2000/svg">
<g clip-path="url(#clip0_901_2282)">
<path d="M10.8333 3.39478H9.16667V11.7281H10.8333V3.39478ZM14.8583 5.20311L13.675 6.38644C14.9917 7.44478 15.8333 9.06978 15.8333 10.8948C15.8333 14.1198 13.225 16.7281 10 16.7281C6.775 16.7281 4.16667 14.1198 4.16667 10.8948C4.16667 9.06978 5.00833 7.44478 6.31667 6.37811L5.14167 5.20311C3.525 6.57811 2.5 8.61144 2.5 10.8948C2.5 15.0364 5.85833 18.3948 10 18.3948C14.1417 18.3948 17.5 15.0364 17.5 10.8948C17.5 8.61144 16.475 6.57811 14.8583 5.20311Z" fill="white"/>
</g>
<defs>
<clipPath id="clip0_901_2282">
<rect width="20" height="20" fill="white" transform="translate(0 0.894775)"/>
</clipPath>
</defs>
</svg>
