<svg width="14" height="19" viewBox="0 0 14 19" fill="none" xmlns="http://www.w3.org/2000/svg">
<path d="M6.66667 4.16667V6.66667L10 3.33333L6.66667 0V2.5C2.98333 2.5 0 5.48333 0 9.16667C0 10.475 0.383333 11.6917 1.03333 12.7167L2.25 11.5C1.875 10.8083 1.66667 10.0083 1.66667 9.16667C1.66667 6.40833 3.90833 4.16667 6.66667 4.16667ZM12.3 5.61667L11.0833 6.83333C11.45 7.53333 11.6667 8.325 11.6667 9.16667C11.6667 11.925 9.425 14.1667 6.66667 14.1667V11.6667L3.33333 15L6.66667 18.3333V15.8333C10.35 15.8333 13.3333 12.85 13.3333 9.16667C13.3333 7.85833 12.95 6.64167 12.3 5.61667Z" fill="white"/>
</svg>
