<svg width="19" height="18" viewBox="0 0 19 18" fill="none" xmlns="http://www.w3.org/2000/svg">
<path d="M9.16667 3.33333C5.94167 3.33333 3.33333 5.94167 3.33333 9.16667H5C5 6.86667 6.86667 5 9.16667 5C11.4667 5 13.3333 6.86667 13.3333 9.16667H15C15 5.94167 12.3917 3.33333 9.16667 3.33333ZM10 11.075C10.7333 10.75 11.25 10.025 11.25 9.16667C11.25 8.01667 10.3167 7.08333 9.16667 7.08333C8.01667 7.08333 7.08333 8.01667 7.08333 9.16667C7.08333 10.0167 7.6 10.75 8.33333 11.075V13.825L5.49167 16.6667L6.66667 17.8417L9.16667 15.3417L11.6667 17.8417L12.8417 16.6667L10 13.825V11.075ZM9.16667 0C4.10833 0 0 4.10833 0 9.16667H1.66667C1.66667 5.025 5.025 1.66667 9.16667 1.66667C13.3083 1.66667 16.6667 5.025 16.6667 9.16667H18.3333C18.3333 4.10833 14.225 0 9.16667 0Z" fill="#6E7C8E"/>
</svg>
