<svg width="24" height="24" viewBox="0 0 24 24" fill="none" xmlns="http://www.w3.org/2000/svg">
<path d="M10.975 12.9L9.02498 10.95C8.85831 10.8 8.66248 10.725 8.43748 10.725C8.21248 10.725 8.02498 10.8 7.87498 10.95C7.72498 11.1 7.64998 11.2875 7.64998 11.5125C7.64998 11.7375 7.72498 11.9333 7.87498 12.1L10.3 14.525C10.4666 14.6917 10.6708 14.775 10.9125 14.775C11.1541 14.775 11.3583 14.6917 11.525 14.525L16.1 9.94999C16.2333 9.79999 16.3 9.61665 16.3 9.39999C16.3 9.18332 16.2333 8.99999 16.1 8.84999C15.95 8.71665 15.7708 8.64999 15.5625 8.64999C15.3541 8.64999 15.175 8.71665 15.025 8.84999L10.975 12.9ZM12 22.075C11.9166 22.075 11.8416 22.0708 11.775 22.0625C11.7083 22.0542 11.65 22.0417 11.6 22.025C9.33331 21.3417 7.47498 19.9458 6.02498 17.8375C4.57498 15.7292 3.84998 13.425 3.84998 10.925V6.07499C3.84998 5.70832 3.95414 5.37499 4.16248 5.07499C4.37081 4.77499 4.63331 4.56665 4.94998 4.44999L11.4 2.02499C11.6166 1.95832 11.8166 1.92499 12 1.92499C12.1833 1.92499 12.3833 1.95832 12.6 2.02499L19.05 4.44999C19.3666 4.56665 19.6291 4.77499 19.8375 5.07499C20.0458 5.37499 20.15 5.70832 20.15 6.07499V10.925C20.15 13.425 19.425 15.7292 17.975 17.8375C16.525 19.9458 14.6666 21.3417 12.4 22.025C12.4166 22.0083 12.2833 22.025 12 22.075Z" fill="#D9D9D9"/>
</svg>
