<svg width="48" height="48" viewBox="0 0 48 48" fill="none" xmlns="http://www.w3.org/2000/svg">
<path d="M24 23.8C21.7 23.8 19.825 23.075 18.375 21.625C16.925 20.175 16.2 18.3 16.2 16C16.2 13.7 16.925 11.825 18.375 10.375C19.825 8.92501 21.7 8.20001 24 8.20001C26.2999 8.20001 28.1749 8.92501 29.625 10.375C31.075 11.825 31.7999 13.7 31.7999 16C31.7999 18.3 31.075 20.175 29.625 21.625C28.1749 23.075 26.2999 23.8 24 23.8ZM11.1 40.45C10.1666 40.45 9.36662 40.1167 8.69995 39.45C8.03328 38.7833 7.69995 37.9833 7.69995 37.05V35.45C7.69995 34.1167 8.03328 32.975 8.69995 32.025C9.36662 31.075 10.2166 30.35 11.25 29.85C13.5166 28.85 15.6833 28.1 17.75 27.6C19.8166 27.1 21.9 26.85 24 26.85C26.1 26.85 28.175 27.1083 30.225 27.625C32.275 28.1417 34.4333 28.8833 36.7 29.85C37.7666 30.35 38.6333 31.075 39.2999 32.025C39.9666 32.975 40.2999 34.1167 40.2999 35.45V37.05C40.2999 37.9833 39.975 38.7833 39.325 39.45C38.675 40.1167 37.8666 40.45 36.9 40.45H11.1Z" fill="#D9D9D9"/>
</svg>
