<svg width="48" height="48" viewBox="0 0 48 48" fill="none" xmlns="http://www.w3.org/2000/svg">
<path d="M23.8489 25.0279C21.784 25.0279 20.0835 24.376 18.7474 23.0721C17.4113 21.7682 16.7433 20.0822 16.7433 18.014C16.7433 15.9457 17.4113 14.2597 18.7474 12.9558C20.0835 11.6519 21.784 11 23.8489 11C25.9441 11 27.6598 11.6519 28.9959 12.9558C30.332 14.2597 31 15.9457 31 18.014C31 20.0822 30.332 21.7682 28.9959 23.0721C27.6598 24.376 25.9441 25.0279 23.8489 25.0279ZM10.5487 40C10.1235 40 9.75914 39.8501 9.45549 39.5504C9.15183 39.2506 9 38.891 9 38.4713V35.5488C9 34.4398 9.27329 33.4357 9.81988 32.5364C10.3665 31.6372 11.1712 30.9478 12.234 30.4682C14.2988 29.569 16.2802 28.8946 18.1781 28.445C20.0759 27.9953 21.9662 27.7705 23.8489 27.7705C24.608 27.7705 25.3444 27.8005 26.058 27.8605C26.4994 27.8976 26.8741 27.9404 27.1819 27.9889C27.4942 28.0382 27.7471 28.2571 27.8695 28.5487L28.8215 30.8172C28.9206 31.0533 28.8105 31.2863 28.5556 31.3099C28.322 31.3316 28.0324 31.3882 27.6749 31.6822C27.0463 32.1993 26.9462 32.2667 26.764 32.5364C26.2781 33.1659 26.3085 33.031 25.853 33.9302C25.3975 34.8295 25.352 34.7545 25.352 36.9426V39C25.352 39.5523 24.9043 40 24.352 40H10.5487Z" fill="#D9D9D9"/>
<path d="M33.5324 29.1702C34.3379 29.9787 35.3342 30.383 36.5212 30.383C37.68 30.383 38.6621 29.9787 39.4676 29.1702C40.2731 28.3617 40.6758 27.3759 40.6758 26.2128C40.6758 25.0213 40.2731 24.0213 39.4676 23.2128C38.6621 22.4043 37.68 22 36.5212 22C35.3342 22 34.3379 22.4043 33.5324 23.2128C32.7269 24.0213 32.3242 25.0213 32.3242 26.2128C32.3242 27.3759 32.7269 28.3617 33.5324 29.1702Z" fill="#D9D9D9"/>
<path d="M28.4239 39.5745C28.7066 39.8582 29.0599 40 29.4838 40H43.5586C43.9543 40 44.2934 39.8582 44.5761 39.5745C44.8587 39.2908 45 38.9504 45 38.5532V37.6596C45 36.8936 44.8304 36.2269 44.4913 35.6596C44.1521 35.0922 43.6858 34.6667 43.0923 34.383C42.0465 33.8156 40.9796 33.4113 39.8915 33.1702C38.8034 32.9291 37.68 32.8085 36.5212 32.8085C35.3342 32.8085 34.1966 32.9362 33.1085 33.1915C32.0204 33.4468 30.9534 33.844 29.9077 34.383C29.3142 34.695 28.8479 35.1277 28.5087 35.6809C28.1696 36.234 28 36.8936 28 37.6596V38.5532C28 38.9504 28.1413 39.2908 28.4239 39.5745Z" fill="#D9D9D9"/>
<path d="M7.56838 16.8003C7.65151 16.5106 8.06197 16.5106 8.1451 16.8003L9.17042 20.373C9.2084 20.5053 9.33158 20.5948 9.46918 20.5901L13.1839 20.4612C13.485 20.4507 13.6119 20.8411 13.3621 21.0097L10.2811 23.0888C10.167 23.1658 10.1199 23.3107 10.167 23.44L11.4374 26.9331C11.5405 27.2163 11.2084 27.4576 10.9709 27.2721L8.04138 24.9844C7.93287 24.8996 7.78061 24.8996 7.67209 24.9844L4.74261 27.2721C4.5051 27.4576 4.17303 27.2163 4.27603 26.9331L5.54651 23.44C5.59357 23.3107 5.54652 23.1658 5.4324 23.0888L2.35139 21.0097C2.1016 20.8411 2.22844 20.4507 2.52961 20.4612L6.2443 20.5901C6.38189 20.5948 6.50508 20.5053 6.54306 20.373L7.56838 16.8003Z" fill="#D9D9D9"/>
</svg>
