<svg width="24" height="24" viewBox="0 0 24 24" fill="none" xmlns="http://www.w3.org/2000/svg">
<path d="M12 11.9C10.85 11.9 9.91248 11.5375 9.18748 10.8125C8.46248 10.0875 8.09998 9.15001 8.09998 8.00001C8.09998 6.85001 8.46248 5.91251 9.18748 5.18751C9.91248 4.46251 10.85 4.10001 12 4.10001C13.15 4.10001 14.0875 4.46251 14.8125 5.18751C15.5375 5.91251 15.9 6.85001 15.9 8.00001C15.9 9.15001 15.5375 10.0875 14.8125 10.8125C14.0875 11.5375 13.15 11.9 12 11.9ZM5.54998 20.225C5.08331 20.225 4.68331 20.0583 4.34998 19.725C4.01664 19.3917 3.84998 18.9917 3.84998 18.525V17.725C3.84998 17.0583 4.01664 16.4875 4.34998 16.0125C4.68331 15.5375 5.10831 15.175 5.62498 14.925C6.75831 14.425 7.84164 14.05 8.87498 13.8C9.90831 13.55 10.95 13.425 12 13.425C13.05 13.425 14.0875 13.5542 15.1125 13.8125C16.1375 14.0708 17.2166 14.4417 18.35 14.925C18.8833 15.175 19.3166 15.5375 19.65 16.0125C19.9833 16.4875 20.15 17.0583 20.15 17.725V18.525C20.15 18.9917 19.9875 19.3917 19.6625 19.725C19.3375 20.0583 18.9333 20.225 18.45 20.225H5.54998Z" fill="#D9D9D9"/>
</svg>
