<svg width="24" height="24" viewBox="0 0 24 24" fill="none" xmlns="http://www.w3.org/2000/svg">
<g clip-path="url(#clip0_1214_1500)">
<path d="M4.8 18.4H19.2C20.19 18.4 21 17.59 21 16.6C21 15.61 20.19 14.8 19.2 14.8H4.8C3.81 14.8 3 15.61 3 16.6C3 17.59 3.81 18.4 4.8 18.4ZM4.8 15.7H6.6V17.5H4.8V15.7ZM3 5.8C3 6.79 3.81 7.6 4.8 7.6H19.2C20.19 7.6 21 6.79 21 5.8C21 4.81 20.19 4 19.2 4H4.8C3.81 4 3 4.81 3 5.8ZM6.6 6.7H4.8V4.9H6.6V6.7ZM4.8 13H19.2C20.19 13 21 12.19 21 11.2C21 10.21 20.19 9.4 19.2 9.4H4.8C3.81 9.4 3 10.21 3 11.2C3 12.19 3.81 13 4.8 13ZM4.8 10.3H6.6V12.1H4.8V10.3Z" fill="#D9D9D9"/>
</g>
<defs>
<clipPath id="clip0_1214_1500">
<rect width="24" height="24" fill="white"/>
</clipPath>
</defs>
</svg>
