<svg width="24" height="24" viewBox="0 0 24 24" fill="none" xmlns="http://www.w3.org/2000/svg">
<path d="M12.0002 22.0319C13.025 22.0319 13.8543 21.2027 13.8543 20.1778H10.146C10.146 21.2027 10.9753 22.0319 12.0002 22.0319ZM19.7241 17.6435L18.5222 16.4416V10.8513C18.5222 7.73005 16.3233 5.12125 13.3977 4.48768V3.39757C13.3977 2.62425 12.7735 2 12.0002 2C11.2268 2 10.6026 2.62425 10.6026 3.39757V4.48768C7.677 5.12125 5.47815 7.73005 5.47815 10.8513V16.4416L4.27623 17.6435C3.68925 18.2305 4.09921 19.2367 4.92843 19.2367H19.0626C19.9011 19.2367 20.3111 18.2305 19.7241 17.6435ZM12.9319 15.5099H11.0684V13.6465H12.9319V15.5099ZM12.9319 10.8513C12.9319 11.3637 12.5126 11.783 12.0002 11.783C11.4877 11.783 11.0684 11.3637 11.0684 10.8513V8.98787C11.0684 8.47543 11.4877 8.05615 12.0002 8.05615C12.5126 8.05615 12.9319 8.47543 12.9319 8.98787V10.8513Z" fill="#D9D9D9"/>
</svg>
