<svg width="24" height="24" viewBox="0 0 24 24" fill="none" xmlns="http://www.w3.org/2000/svg">
<path d="M17.4187 7.42118C17.4187 6.97228 17.0548 6.60837 16.6059 6.60837L7.39409 6.60838C6.94519 6.60838 6.58128 6.97228 6.58128 7.42118C6.58128 7.87008 6.94519 8.23399 7.39409 8.23399L16.6059 8.23399C17.0548 8.23399 17.4187 7.87008 17.4187 7.42118ZM12.0813 9.99507L8.37385 13.679C8.05749 13.9934 8.05668 14.505 8.37204 14.8203C8.68539 15.1337 9.19295 15.1352 9.50814 14.8237L11.2414 13.1108L11.2414 17.6897C11.2414 18.1386 11.6053 18.5025 12.0542 18.5025C12.5031 18.5025 12.867 18.1386 12.867 17.6897L12.867 13.1108L14.5984 14.8219C14.9146 15.1344 15.4238 15.1329 15.7381 14.8185C16.0531 14.5036 16.0539 13.9932 15.74 13.6772L12.0813 9.99507ZM12 1C13.4992 1 14.9216 1.289 16.2672 1.86699C17.6129 2.44499 18.7824 3.23071 19.7759 4.22414C20.7693 5.21757 21.555 6.38259 22.133 7.71921C22.711 9.05583 23 10.4828 23 12C23 13.5172 22.711 14.9487 22.133 16.2943C21.555 17.64 20.7693 18.805 19.7759 19.7894C18.7824 20.7738 17.6174 21.555 16.2808 22.133C14.9442 22.711 13.5172 23 12 23C10.4828 23 9.05131 22.711 7.70566 22.133C6.36002 21.555 5.19499 20.7738 4.21059 19.7894C3.22619 18.805 2.44499 17.6445 1.86699 16.3079C1.289 14.9713 0.999999 13.5353 0.999999 12C0.999999 10.4828 1.28899 9.05583 1.86699 7.71921C2.44499 6.38259 3.22619 5.21757 4.21059 4.22414C5.19499 3.23071 6.3555 2.44499 7.69211 1.86699C9.02873 1.289 10.4647 1 12 1Z" fill="white"/>
</svg>
