<svg width="48" height="48" viewBox="0 0 48 48" fill="none" xmlns="http://www.w3.org/2000/svg">
<g clip-path="url(#clip0_1514_3347)">
<path d="M5.45984 41.9991H42.5198C44.0598 41.9991 45.0198 40.3391 44.2598 38.9991L25.7198 6.99914C24.9398 5.65914 23.0198 5.65914 22.2598 6.99914L3.71984 38.9991C2.95984 40.3391 3.91984 41.9991 5.45984 41.9991ZM25.9998 34.9991C25.9998 36.1037 25.1044 36.9991 23.9998 36.9991C22.8953 36.9991 21.9998 36.1037 21.9998 34.9991C21.9998 33.8946 22.8953 32.9991 23.9998 32.9991C25.1044 32.9991 25.9998 33.8946 25.9998 34.9991ZM23.9998 28.9991C22.8998 28.9991 21.9998 28.0991 21.9998 26.9991V20.9991C21.9998 19.8991 22.8998 18.9991 23.9998 18.9991C25.0998 18.9991 25.9998 19.8991 25.9998 20.9991V26.9991C25.9998 28.0991 25.0998 28.9991 23.9998 28.9991Z" fill="#D9D9D9"/>
</g>
<defs>
<clipPath id="clip0_1514_3347">
<rect width="48" height="48" fill="white"/>
</clipPath>
</defs>
</svg>
