<svg width="48" height="48" viewBox="0 0 48 48" fill="none" xmlns="http://www.w3.org/2000/svg">
<path fill-rule="evenodd" clip-rule="evenodd" d="M17.7309 41.937V37.7931H7.42014C6.48128 37.7931 5.67654 37.4578 5.00592 36.7872C4.33531 36.1166 4 35.3119 4 34.373V8.42015C4 7.48128 4.33531 6.67654 5.00592 6.00592C5.67654 5.33531 6.48128 5 7.42014 5H25.4262V8.42015H7.42014V34.373H41.4204V27.2812H44.8405V34.373C44.8405 35.3119 44.5052 36.1166 43.8346 36.7872C43.164 37.4578 42.3593 37.7931 41.4204 37.7931H31.1097V41.937H39.225C40.0708 41.937 40.7565 42.6226 40.7565 43.4685C40.7565 44.3143 40.0708 45 39.225 45H9.61557C8.76974 45 8.08405 44.3143 8.08405 43.4685C8.08405 42.6226 8.76974 41.937 9.61557 41.937H17.7309ZM33.8508 25.7472C34.0352 25.7975 34.2448 25.8226 34.4795 25.8226C34.7142 25.8226 34.9238 25.7975 35.1082 25.7472C35.2926 25.6969 35.4854 25.5712 35.6866 25.37L42.8287 18.2279C43.1305 17.9261 43.2814 17.5657 43.2814 17.1465C43.2814 16.7274 43.1305 16.3502 42.8287 16.0149C42.5269 15.7131 42.1665 15.5622 41.7473 15.5622C41.3282 15.5622 40.951 15.7131 40.6157 16.0149L36.0387 20.5918V6.55918C36.0387 6.12328 35.8962 5.75444 35.6112 5.45267C35.3262 5.15089 34.9489 5 34.4795 5C34.0436 5 33.6748 5.15089 33.373 5.45267C33.0712 5.75444 32.9203 6.12328 32.9203 6.55918V20.5918L28.3434 16.0149C28.0081 15.7131 27.6392 15.5622 27.2369 15.5622C26.8345 15.5622 26.4657 15.7131 26.1303 16.0149C25.8286 16.3502 25.6777 16.7274 25.6777 17.1465C25.6777 17.5657 25.8286 17.9261 26.1303 18.2279L33.2724 25.37C33.4736 25.5712 33.6664 25.6969 33.8508 25.7472Z" fill="#D9D9D9"/>
</svg>
