<svg width="24" height="24" viewBox="0 0 24 24" fill="none" xmlns="http://www.w3.org/2000/svg">
<path d="M6.58128 16.5788C6.58128 17.0277 6.94519 17.3916 7.39409 17.3916H16.6059C17.0548 17.3916 17.4187 17.0277 17.4187 16.5788C17.4187 16.1299 17.0548 15.766 16.6059 15.766H7.39409C6.94519 15.766 6.58128 16.1299 6.58128 16.5788ZM11.9187 14.0049L15.6261 10.321C15.9425 10.0066 15.9433 9.49505 15.628 9.17968C15.3146 8.86634 14.807 8.86484 14.4919 9.17632L12.7586 10.8892V6.31035C12.7586 5.86144 12.3947 5.49754 11.9458 5.49754C11.4969 5.49754 11.133 5.86144 11.133 6.31035V10.8892L9.40159 9.17812C9.08539 8.86564 8.5762 8.86715 8.26186 9.18149C7.94691 9.49644 7.94609 10.0068 8.26004 10.3228L11.9187 14.0049ZM12 23C10.5008 23 9.07841 22.711 7.73276 22.133C6.38711 21.555 5.21757 20.7693 4.22414 19.7759C3.23071 18.7824 2.44499 17.6174 1.867 16.2808C1.289 14.9442 1 13.5172 1 12C1 10.4828 1.289 9.05132 1.867 7.70567C2.44499 6.36002 3.23071 5.19499 4.22414 4.21059C5.21757 3.22619 6.3826 2.44499 7.71921 1.867C9.05583 1.289 10.4828 1 12 1C13.5172 1 14.9487 1.289 16.2943 1.867C17.64 2.44499 18.805 3.22619 19.7894 4.21059C20.7738 5.19499 21.555 6.3555 22.133 7.69212C22.711 9.02874 23 10.4647 23 12C23 13.5172 22.711 14.9442 22.133 16.2808C21.555 17.6174 20.7738 18.7824 19.7894 19.7759C18.805 20.7693 17.6445 21.555 16.3079 22.133C14.9713 22.711 13.5353 23 12 23Z" fill="white"/>
</svg>
