<svg width="24" height="24" viewBox="0 0 24 24" fill="none" xmlns="http://www.w3.org/2000/svg">
<path d="M12.5 17.664C12.784 17.664 13.0174 17.5726 13.2003 17.3897C13.3826 17.2074 13.4737 16.9743 13.4737 16.6903V11.6976C13.4737 11.4271 13.3826 11.2004 13.2003 11.0176C13.0174 10.8353 12.784 10.7441 12.5 10.7441C12.216 10.7441 11.9828 10.8388 11.8005 11.0281C11.6177 11.2174 11.5263 11.4474 11.5263 11.7178V16.7106C11.5263 16.981 11.6177 17.2074 11.8005 17.3897C11.9828 17.5726 12.216 17.664 12.5 17.664ZM12.5 9.34434C12.7975 9.34434 13.0445 9.24615 13.2409 9.04978C13.4367 8.85395 13.5346 8.60727 13.5346 8.30973C13.5346 8.0122 13.4367 7.76524 13.2409 7.56887C13.0445 7.37304 12.7975 7.27513 12.5 7.27513C12.2025 7.27513 11.9558 7.37304 11.76 7.56887C11.5636 7.76524 11.4654 8.0122 11.4654 8.30973C11.4654 8.60727 11.5636 8.85395 11.76 9.04978C11.9558 9.24615 12.2025 9.34434 12.5 9.34434ZM12.5 21C11.3099 21 10.2009 20.7768 9.17303 20.3305C8.14519 19.8842 7.24934 19.2792 6.48549 18.5153C5.7211 17.7509 5.11575 16.8548 4.66945 15.827C4.22315 14.7991 4 13.6901 4 12.5C4 11.3099 4.22315 10.2009 4.66945 9.17303C5.11575 8.14519 5.7211 7.24907 6.48549 6.48468C7.24934 5.72083 8.14519 5.11575 9.17303 4.66945C10.2009 4.22315 11.3099 4 12.5 4C13.6901 4 14.7991 4.22315 15.827 4.66945C16.8548 5.11575 17.7509 5.72083 18.5153 6.48468C19.2792 7.24907 19.8842 8.14519 20.3305 9.17303C20.7768 10.2009 21 11.3099 21 12.5C21 13.6901 20.7768 14.7991 20.3305 15.827C19.8842 16.8548 19.2792 17.7509 18.5153 18.5153C17.7509 19.2792 16.8548 19.8842 15.827 20.3305C14.7991 20.7768 13.6901 21 12.5 21Z" fill="#909799"/>
</svg>
