<svg width="24" height="24" viewBox="0 0 24 24" fill="none" xmlns="http://www.w3.org/2000/svg">
<path d="M17.0504 15.9746C16.8837 15.8079 16.8004 15.6038 16.8004 15.3621C16.8004 15.1204 16.8837 14.9163 17.0504 14.7496L18.9504 12.8496H11.1504C10.9171 12.8496 10.7171 12.7663 10.5504 12.5996C10.3837 12.4329 10.3004 12.2329 10.3004 11.9996C10.3004 11.7496 10.3837 11.5454 10.5504 11.3871C10.7171 11.2288 10.9171 11.1496 11.1504 11.1496H18.9004L16.9754 9.22461C16.8254 9.07461 16.7504 8.88294 16.7504 8.64961C16.7504 8.41628 16.8337 8.20794 17.0004 8.02461C17.1671 7.85794 17.3712 7.77461 17.6129 7.77461C17.8546 7.77461 18.0587 7.85794 18.2254 8.02461L21.6254 11.4246C21.7087 11.5246 21.7712 11.6246 21.8129 11.7246C21.8546 11.8246 21.8754 11.9246 21.8754 12.0246C21.8754 12.1413 21.8546 12.2454 21.8129 12.3371C21.7712 12.4288 21.7087 12.5246 21.6254 12.6246L18.2504 15.9996C18.1004 16.1496 17.9087 16.2246 17.6754 16.2246C17.4421 16.2246 17.2337 16.1413 17.0504 15.9746ZM5.50039 21.1496C5.03372 21.1496 4.62956 20.9788 4.28789 20.6371C3.94622 20.2954 3.77539 19.8996 3.77539 19.4496V4.54961C3.77539 4.08294 3.94622 3.68294 4.28789 3.34961C4.62956 3.01628 5.03372 2.84961 5.50039 2.84961H11.9504C12.2004 2.84961 12.4046 2.93294 12.5629 3.09961C12.7212 3.26628 12.8004 3.46628 12.8004 3.69961C12.8004 3.94961 12.7212 4.15378 12.5629 4.31211C12.4046 4.47044 12.2004 4.54961 11.9504 4.54961H5.50039V19.4496H11.9504C12.2004 19.4496 12.4046 19.5329 12.5629 19.6996C12.7212 19.8663 12.8004 20.0663 12.8004 20.2996C12.8004 20.5496 12.7212 20.7538 12.5629 20.9121C12.4046 21.0704 12.2004 21.1496 11.9504 21.1496H5.50039Z" fill="white"/>
</svg>
