<svg width="24" height="24" viewBox="0 0 24 24" fill="none" xmlns="http://www.w3.org/2000/svg">
<path d="M3.87569 19C3.6353 19 3.42926 18.8988 3.25755 18.6964C3.08585 18.4939 3 18.2409 3 17.9372C3 17.6538 3.08585 17.416 3.25755 17.2237C3.42926 17.0314 3.6353 16.9352 3.87569 16.9352H20.8743C21.1147 16.9352 21.3207 17.0314 21.4924 17.2237C21.6641 17.416 21.75 17.664 21.75 17.9676C21.75 18.251 21.6641 18.4939 21.4924 18.6964C21.3207 18.8988 21.1147 19 20.8743 19H3.87569ZM3.87569 12.5324C3.6353 12.5324 3.42926 12.4312 3.25755 12.2287C3.08585 12.0263 3 11.7834 3 11.5C3 11.1964 3.08585 10.9484 3.25755 10.7561C3.42926 10.5638 3.6353 10.4676 3.87569 10.4676H20.8743C21.1147 10.4676 21.3207 10.5688 21.4924 10.7713C21.6641 10.9737 21.75 11.2166 21.75 11.5C21.75 11.8036 21.6641 12.0516 21.4924 12.2439C21.3207 12.4362 21.1147 12.5324 20.8743 12.5324H3.87569ZM3.87569 6.06478C3.6353 6.06478 3.42926 5.96862 3.25755 5.77632C3.08585 5.58401 3 5.33603 3 5.03239C3 4.74899 3.08585 4.50607 3.25755 4.30364C3.42926 4.10121 3.6353 4 3.87569 4H20.8743C21.1147 4 21.3207 4.10121 21.4924 4.30364C21.6641 4.50607 21.75 4.75911 21.75 5.06275C21.75 5.34615 21.6641 5.58401 21.4924 5.77632C21.3207 5.96862 21.1147 6.06478 20.8743 6.06478H3.87569Z" fill="white"/>
</svg>
