<svg width="24" height="24" viewBox="0 0 24 24" fill="none" xmlns="http://www.w3.org/2000/svg">
<path d="M4.87962 19.3766C4.38141 19.3766 3.94358 19.1841 3.56615 18.7992C3.18872 18.4142 3 17.9801 3 17.497V5.90226C3 5.38896 3.18872 4.94358 3.56615 4.56615C3.94358 4.18872 4.38141 4 4.87962 4H8.34446C8.86975 4 9.29559 4.42584 9.29559 4.95113V4.95113C9.29559 5.47643 8.86975 5.90226 8.34446 5.90226H4.87962V17.497H20.1204V5.90226H16.6555C16.1302 5.90226 15.7044 5.47643 15.7044 4.95113V4.95113C15.7044 4.42584 16.1302 4 16.6555 4H20.1204C20.6186 4 21.0564 4.18872 21.4338 4.56615C21.8113 4.94358 22 5.38896 22 5.90226V17.497C22 17.9801 21.8113 18.4142 21.4338 18.7992C21.0564 19.1841 20.6186 19.3766 20.1204 19.3766H4.87962ZM12.4887 15.1192L8.2577 10.9077C7.88063 10.5324 7.87993 9.92222 8.25613 9.54602V9.54602C8.63057 9.17158 9.23725 9.17026 9.6133 9.54308L11.5602 11.4732V4.93981C11.5602 4.42077 11.981 4 12.5 4V4C13.019 4 13.4398 4.42077 13.4398 4.93981V11.4732L15.3867 9.54312C15.7618 9.1712 16.3678 9.17506 16.7382 9.55173V9.55173C17.1059 9.92569 17.1027 10.5264 16.731 10.8964L12.4887 15.1192Z" fill="white"/>
</svg>
