<svg width="24" height="24" viewBox="0 0 24 24" fill="none" xmlns="http://www.w3.org/2000/svg">
<g clip-path="url(#clip0_1145_3118)">
<path d="M2.19888 11.5587C2.52465 11.9803 3.11871 12.0569 3.54029 11.7407L4.48886 11.0125V19.0418C4.48886 19.5688 4.92003 20 5.44701 20H18.8611C19.3881 20 19.8193 19.5688 19.8193 19.0418V11.0125L20.7679 11.7407C21.1894 12.0665 21.7931 11.9803 22.1093 11.5587C22.435 11.1371 22.3488 10.5335 21.9272 10.2173L12.729 3.19403C12.384 2.93532 11.905 2.93532 11.5696 3.19403L2.37135 10.2173C1.95934 10.543 1.87311 11.1467 2.19888 11.5587ZM8.32147 14.2511C7.79448 14.2511 7.36332 13.8199 7.36332 13.2929C7.36332 12.766 7.79448 12.3348 8.32147 12.3348C8.84845 12.3348 9.27962 12.766 9.27962 13.2929C9.27962 13.8199 8.84845 14.2511 8.32147 14.2511ZM12.1541 14.2511C11.6271 14.2511 11.1959 13.8199 11.1959 13.2929C11.1959 12.766 11.6271 12.3348 12.1541 12.3348C12.6811 12.3348 13.1122 12.766 13.1122 13.2929C13.1122 13.8199 12.6811 14.2511 12.1541 14.2511ZM15.9867 14.2511C15.4597 14.2511 15.0285 13.8199 15.0285 13.2929C15.0285 12.766 15.4597 12.3348 15.9867 12.3348C16.5137 12.3348 16.9448 12.766 16.9448 13.2929C16.9448 13.8199 16.5137 14.2511 15.9867 14.2511Z" fill="#35A0DB"/>
</g>
<defs>
<clipPath id="clip0_1145_3118">
<rect width="24" height="24" fill="white"/>
</clipPath>
</defs>
</svg>
