<svg width="24" height="24" viewBox="0 0 24 24" fill="none" xmlns="http://www.w3.org/2000/svg">
<path d="M5.28934 20C4.8169 20 4.43392 19.617 4.43392 19.1446C4.43392 18.6721 4.8169 18.2892 5.28934 18.2892H7.205L7.03633 18.1446C6.07247 17.1968 5.32548 16.253 4.79536 15.3133C4.26524 14.3735 4.00018 13.2932 4.00018 12.0723C4.00018 10.2249 4.56243 8.58233 5.68693 7.14458C6.53577 6.05928 7.57684 5.24629 8.81013 4.70564C9.42853 4.43454 10.0725 4.92808 10.0725 5.60329C10.0725 6.04235 9.7891 6.42476 9.39309 6.61436C8.48264 7.05025 7.72918 7.69286 7.13271 8.54217C6.39376 9.59438 6.02428 10.7711 6.02428 12.0723C6.02428 13.0361 6.19697 13.8715 6.54235 14.5783C6.88773 15.2851 7.36565 15.8956 7.97609 16.4096L8.60259 16.7952V14.9639C8.60259 14.4981 8.98018 14.1205 9.44597 14.1205C9.91175 14.1205 10.2893 14.4981 10.2893 14.9639V20H5.28934ZM15.2701 19.3047C14.6504 19.5817 14.0002 19.0879 14.0002 18.409C14.0002 17.964 14.2912 17.5781 14.6947 17.3903C15.6111 16.9636 16.3635 16.3235 16.952 15.4699C17.6829 14.4096 18.0484 13.2209 18.0484 11.9036C18.0484 11.1968 17.8677 10.4659 17.5062 9.71084C17.1448 8.95582 16.6829 8.28916 16.1207 7.71084L15.5424 7.20482V9.0241C15.5424 9.49653 15.1594 9.87952 14.6869 9.87952C14.2145 9.87952 13.8315 9.49653 13.8315 9.0241V4H18.8556C19.328 4 19.711 4.38299 19.711 4.85542C19.711 5.32786 19.328 5.71084 18.8556 5.71084H16.8918L17.0845 5.90361C18.0805 6.81928 18.8275 7.80723 19.3255 8.86747C19.8235 9.92771 20.0725 10.9398 20.0725 11.9036C20.0725 13.7671 19.5102 15.4177 18.3857 16.8554C17.5386 17.9385 16.5001 18.7549 15.2701 19.3047Z" fill="white"/>
</svg>
