<svg width="24" height="24" viewBox="0 0 24 24" fill="none" xmlns="http://www.w3.org/2000/svg">
<g clip-path="url(#clip0_1214_1512)">
<path d="M11.9983 10.1989C11.0081 10.1989 10.1979 11.0091 10.1979 11.9993C10.1979 12.9895 11.0081 13.7996 11.9983 13.7996C12.9885 13.7996 13.7986 12.9895 13.7986 11.9993C13.7986 11.0091 12.9885 10.1989 11.9983 10.1989ZM17.3993 11.9993C17.3993 8.79465 14.5998 6.23816 11.3231 6.64324C8.96468 6.93129 7.02031 8.81266 6.66024 11.1621C6.36318 13.0975 7.10132 14.8618 8.39757 16.023C8.82966 16.4101 9.50479 16.3201 9.80184 15.816L9.81084 15.807C10.0269 15.4289 9.93687 14.9698 9.61281 14.6728C8.68563 13.8356 8.18153 12.5394 8.5146 11.1261C8.81165 9.84786 9.84685 8.81266 11.1251 8.5066C13.4836 7.93949 15.599 9.72183 15.599 11.9993C15.599 13.0615 15.1309 14.0067 14.4017 14.6638C14.0777 14.9518 13.9786 15.4199 14.1947 15.798L14.2037 15.807C14.4827 16.2841 15.1309 16.4281 15.554 16.0591C16.6792 15.0689 17.3993 13.6196 17.3993 11.9993ZM10.9451 3.06055C6.78626 3.52864 3.42862 6.9583 3.04154 11.1261C2.72648 14.4567 4.22977 17.4453 6.66024 19.2367C7.09232 19.5517 7.70444 19.4167 7.97449 18.9576C8.19953 18.5705 8.10052 18.0664 7.74045 17.7964C5.68805 16.2751 4.45481 13.7006 4.8959 10.8651C5.38199 7.71444 8.0105 5.20296 11.1791 4.85189C15.5179 4.3568 19.1997 7.75045 19.1997 11.9993C19.1997 14.3847 18.0384 16.4821 16.2561 17.7964C15.896 18.0664 15.797 18.5615 16.022 18.9576C16.2921 19.4257 16.9042 19.5517 17.3363 19.2367C19.5597 17.5983 21 14.9698 21 11.9993C21 6.67925 16.3821 2.43943 10.9451 3.06055Z" fill="#35A0DB"/>
</g>
<defs>
<clipPath id="clip0_1214_1512">
<rect width="24" height="24" fill="white"/>
</clipPath>
</defs>
</svg>
