<svg width="24" height="24" viewBox="0 0 24 24" fill="none" xmlns="http://www.w3.org/2000/svg">
<g clip-path="url(#clip0_1214_1507)">
<path d="M11.9983 11.1989C11.0081 11.1989 10.1979 12.0091 10.1979 12.9993C10.1979 13.9895 11.0081 14.7996 11.9983 14.7996C12.9885 14.7996 13.7986 13.9895 13.7986 12.9993C13.7986 12.0091 12.9885 11.1989 11.9983 11.1989ZM17.3993 12.9993C17.3993 9.79465 14.5998 7.23816 11.3231 7.64324C8.96468 7.93129 7.02031 9.81266 6.66024 12.1621C6.36318 14.0975 7.10132 15.8618 8.39757 17.023C8.82966 17.4101 9.50479 17.3201 9.80184 16.816L9.81084 16.807C10.0269 16.4289 9.93687 15.9698 9.61281 15.6728C8.68563 14.8356 8.18153 13.5394 8.5146 12.1261C8.81165 10.8479 9.84685 9.81266 11.1251 9.5066C13.4836 8.93949 15.599 10.7218 15.599 12.9993C15.599 14.0615 15.1309 15.0067 14.4017 15.6638C14.0777 15.9518 13.9786 16.4199 14.1947 16.798L14.2037 16.807C14.4827 17.2841 15.1309 17.4281 15.554 17.0591C16.6792 16.0689 17.3993 14.6196 17.3993 12.9993ZM10.9451 4.06055C6.78626 4.52864 3.42862 7.9583 3.04154 12.1261C2.72648 15.4567 4.22977 18.4453 6.66024 20.2367C7.09232 20.5517 7.70444 20.4167 7.97449 19.9576C8.19953 19.5705 8.10052 19.0664 7.74045 18.7964C5.68805 17.2751 4.45481 14.7006 4.8959 11.8651C5.38199 8.71444 8.0105 6.20296 11.1791 5.85189C15.5179 5.3568 19.1997 8.75045 19.1997 12.9993C19.1997 15.3847 18.0384 17.4821 16.2561 18.7964C15.896 19.0664 15.797 19.5615 16.022 19.9576C16.2921 20.4257 16.9042 20.5517 17.3363 20.2367C19.5597 18.5983 21 15.9698 21 12.9993C21 7.67925 16.3821 3.43943 10.9451 4.06055Z" fill="#D9D9D9"/>
</g>
<defs>
<clipPath id="clip0_1214_1507">
<rect width="24" height="24" fill="white"/>
</clipPath>
</defs>
</svg>
