<svg width="24" height="24" viewBox="0 0 24 24" fill="none" xmlns="http://www.w3.org/2000/svg">
<path d="M8.25 15.75H15.774V8.22596H8.25V15.75ZM12 22C10.6218 22 9.32772 21.7356 8.11779 21.2067C6.90785 20.6779 5.85016 19.9607 4.94471 19.0553C4.03926 18.1498 3.32212 17.0921 2.79327 15.8822C2.26442 14.6723 2 13.3702 2 11.976C2 10.5978 2.26442 9.30369 2.79327 8.09375C3.32212 6.88381 4.03926 5.82612 4.94471 4.92067C5.85016 4.01522 6.90785 3.30208 8.11779 2.78125C9.32772 2.26042 10.6218 2 12 2C13.3782 2 14.6763 2.26042 15.8942 2.78125C17.1122 3.30208 18.1739 4.01522 19.0793 4.92067C19.9848 5.82612 20.6979 6.88782 21.2188 8.10577C21.7396 9.32372 22 10.6218 22 12C22 13.3782 21.7396 14.6723 21.2188 15.8822C20.6979 17.0921 19.9848 18.1458 19.0793 19.0433C18.1739 19.9407 17.1122 20.6579 15.8942 21.1947C14.6763 21.7316 13.3782 22 12 22ZM12.024 20.2452C14.2997 20.2452 16.2388 19.4399 17.8413 17.8293C19.4439 16.2188 20.2452 14.2676 20.2452 11.976C20.2452 9.70032 19.4439 7.76122 17.8413 6.15865C16.2388 4.55609 14.2917 3.75481 12 3.75481C9.72436 3.75481 7.78125 4.55609 6.17067 6.15865C4.5601 7.76122 3.75481 9.70833 3.75481 12C3.75481 14.2756 4.5601 16.2188 6.17067 17.8293C7.78125 19.4399 9.73237 20.2452 12.024 20.2452Z" fill="white"/>
</svg>
