<svg width="48" height="48" viewBox="0 0 48 48" fill="none" xmlns="http://www.w3.org/2000/svg">
<path d="M6.95 44.2992C6.01667 44.2992 5.20833 43.9576 4.525 43.2742C3.84167 42.5909 3.5 41.7992 3.5 40.8992V7.09922C3.5 6.16589 3.84167 5.36589 4.525 4.69922C5.20833 4.03255 6.01667 3.69922 6.95 3.69922H23.95L36.15 15.8492V22.7742C36.15 23.7269 35.3777 24.4992 34.425 24.4992C33.4723 24.4992 32.7 23.7269 32.7 22.7742V18.0992H23.7C22.5954 18.0992 21.7 17.2038 21.7 16.0992V7.09922H6.95V40.8992H27.8C28.7389 40.8992 29.5 41.6603 29.5 42.5992C29.5 43.5381 28.7389 44.2992 27.8 44.2992H6.95Z" fill="#D9D9D9"/>
<path d="M38.6207 44.3941C38.3908 44.3941 38.1855 44.3695 38.0049 44.3202C37.8243 44.2709 37.6355 44.1478 37.4384 43.9507L30.4433 36.9557C30.1478 36.6601 30 36.3071 30 35.8966C30 35.486 30.1478 35.1166 30.4433 34.7882C30.7718 34.4926 31.133 34.3448 31.5271 34.3448C31.9212 34.3448 32.2824 34.4926 32.6108 34.7882L37.0936 39.2709V28.5271C37.0936 28.1002 37.2414 27.7389 37.5369 27.4434C37.8325 27.1478 38.1938 27 38.6207 27C39.0805 27 39.4499 27.1478 39.7291 27.4434C40.0082 27.7389 40.1478 28.1002 40.1478 28.5271V39.2709L44.6305 34.7882C44.9589 34.4926 45.3284 34.3448 45.7389 34.3448C46.1494 34.3448 46.5025 34.4926 46.798 34.7882C47.0936 35.1166 47.2414 35.486 47.2414 35.8966C47.2414 36.3071 47.0936 36.6601 46.798 36.9557L39.803 43.9507C39.6059 44.1478 39.4171 44.2709 39.2365 44.3202C39.0558 44.3695 38.8506 44.3941 38.6207 44.3941Z" fill="#D9D9D9"/>
</svg>
