<svg width="24" height="24" viewBox="0 0 24 24" fill="none" xmlns="http://www.w3.org/2000/svg">
<path d="M5.33333 7.5C5.33333 7.04167 5.70833 6.66667 6.16667 6.66667H19.5C19.9583 6.66667 20.3333 6.29167 20.3333 5.83333C20.3333 5.375 19.9583 5 19.5 5H5.33333C4.41667 5 3.66667 5.75 3.66667 6.66667V15.8333H3.25C2.55833 15.8333 2 16.3917 2 17.0833C2 17.775 2.55833 18.3333 3.25 18.3333H12.4167C13.1083 18.3333 13.6667 17.775 13.6667 17.0833C13.6667 16.3917 13.1083 15.8333 12.4167 15.8333H5.33333V7.5ZM21.1667 8.33333H16.1667C15.7083 8.33333 15.3333 8.70833 15.3333 9.16667V17.5C15.3333 17.9583 15.7083 18.3333 16.1667 18.3333H21.1667C21.625 18.3333 22 17.9583 22 17.5V9.16667C22 8.70833 21.625 8.33333 21.1667 8.33333ZM20.3333 15.8333H17V10H20.3333V15.8333Z" fill="#D9D9D9"/>
</svg>
