<svg width="24" height="24" viewBox="0 0 24 24" fill="none" xmlns="http://www.w3.org/2000/svg">
<path fill-rule="evenodd" clip-rule="evenodd" d="M5.06667 5.77771H18.9333C19.5224 5.77771 20 6.25527 20 6.84438V18.8444C20 19.4334 19.5224 19.911 18.9333 19.911H5.06667C4.47756 19.911 4 19.4334 4 18.8444V6.84438C4 6.25527 4.47756 5.77771 5.06667 5.77771ZM5.6 9.33327V18.311H18.4V9.33327H5.6Z" fill="white"/>
<path d="M8.44489 4.88889C8.44489 4.39797 8.04692 4 7.556 4C7.06508 4 6.66711 4.39797 6.66711 4.88889V5.77778C6.66711 6.2687 7.06508 6.66667 7.556 6.66667C8.04692 6.66667 8.44489 6.2687 8.44489 5.77778V4.88889Z" fill="white"/>
<path d="M9.33326 11.9999C9.33326 11.5089 8.93529 11.111 8.44437 11.111C7.95345 11.111 7.55548 11.5089 7.55548 11.9999C7.55548 12.4908 7.95345 12.8887 8.44437 12.8887C8.93529 12.8887 9.33326 12.4908 9.33326 11.9999Z" fill="white"/>
<path d="M9.33326 15.5556C9.33326 15.0647 8.93529 14.6667 8.44437 14.6667C7.95345 14.6667 7.55548 15.0647 7.55548 15.5556C7.55548 16.0466 7.95345 16.4445 8.44437 16.4445C8.93529 16.4445 9.33326 16.0466 9.33326 15.5556Z" fill="white"/>
<path d="M12.8888 11.9999C12.8888 11.5089 12.4908 11.111 11.9999 11.111C11.509 11.111 11.111 11.5089 11.111 11.9999C11.111 12.4908 11.509 12.8887 11.9999 12.8887C12.4908 12.8887 12.8888 12.4908 12.8888 11.9999Z" fill="white"/>
<path d="M12.8888 15.5556C12.8888 15.0647 12.4908 14.6667 11.9999 14.6667C11.509 14.6667 11.111 15.0647 11.111 15.5556C11.111 16.0466 11.509 16.4445 11.9999 16.4445C12.4908 16.4445 12.8888 16.0466 12.8888 15.5556Z" fill="white"/>
<path d="M16.4443 11.9999C16.4443 11.5089 16.0463 11.111 15.5554 11.111C15.0645 11.111 14.6665 11.5089 14.6665 11.9999C14.6665 12.4908 15.0645 12.8887 15.5554 12.8887C16.0463 12.8887 16.4443 12.4908 16.4443 11.9999Z" fill="white"/>
<path d="M16.4443 15.5556C16.4443 15.0647 16.0463 14.6667 15.5554 14.6667C15.0645 14.6667 14.6665 15.0647 14.6665 15.5556C14.6665 16.0466 15.0645 16.4445 15.5554 16.4445C16.0463 16.4445 16.4443 16.0466 16.4443 15.5556Z" fill="white"/>
<path d="M17.3336 4.88889C17.3336 4.39797 16.9357 4 16.4447 4C15.9538 4 15.5558 4.39797 15.5558 4.88889V5.77778C15.5558 6.2687 15.9538 6.66667 16.4447 6.66667C16.9357 6.66667 17.3336 6.2687 17.3336 5.77778V4.88889Z" fill="white"/>
</svg>
