<svg width="24" height="24" viewBox="0 0 24 24" fill="none" xmlns="http://www.w3.org/2000/svg">
<path d="M12.075 17.075C12.3083 17.075 12.5041 16.9958 12.6625 16.8375C12.8208 16.6792 12.9 16.4833 12.9 16.25V11.8C12.9 11.5833 12.8166 11.3958 12.65 11.2375C12.4833 11.0792 12.2916 11 12.075 11C11.8416 11 11.6458 11.0792 11.4875 11.2375C11.3291 11.3958 11.25 11.5917 11.25 11.825V16.275C11.25 16.4917 11.3333 16.6792 11.5 16.8375C11.6666 16.9958 11.8583 17.075 12.075 17.075ZM12 9.25001C12.2666 9.25001 12.4875 9.16667 12.6625 9.00001C12.8375 8.83334 12.925 8.61667 12.925 8.35001C12.925 8.08334 12.8375 7.85834 12.6625 7.67501C12.4875 7.49167 12.2666 7.40001 12 7.40001C11.7333 7.40001 11.5125 7.49167 11.3375 7.67501C11.1625 7.85834 11.075 8.08334 11.075 8.35001C11.075 8.61667 11.1625 8.83334 11.3375 9.00001C11.5125 9.16667 11.7333 9.25001 12 9.25001ZM12 22.15C10.5666 22.15 9.22914 21.8917 7.98748 21.375C6.74581 20.8583 5.67081 20.1458 4.76248 19.2375C3.85414 18.3292 3.14164 17.2542 2.62498 16.0125C2.10831 14.7708 1.84998 13.4333 1.84998 12C1.84998 10.5833 2.10831 9.25417 2.62498 8.01251C3.14164 6.77084 3.85414 5.69584 4.76248 4.78751C5.67081 3.87917 6.74581 3.16251 7.98748 2.63751C9.22914 2.11251 10.5666 1.85001 12 1.85001C13.4166 1.85001 14.7458 2.11251 15.9875 2.63751C17.2291 3.16251 18.3041 3.87917 19.2125 4.78751C20.1208 5.69584 20.8375 6.76667 21.3625 8.00001C21.8875 9.23334 22.15 10.5667 22.15 12C22.15 13.4333 21.8875 14.7708 21.3625 16.0125C20.8375 17.2542 20.1208 18.3292 19.2125 19.2375C18.3041 20.1458 17.2291 20.8583 15.9875 21.375C14.7458 21.8917 13.4166 22.15 12 22.15ZM12 20.45C14.3166 20.45 16.3041 19.625 17.9625 17.975C19.6208 16.325 20.45 14.3333 20.45 12C20.45 9.68334 19.6208 7.69584 17.9625 6.03751C16.3041 4.37917 14.3166 3.55001 12 3.55001C9.68331 3.55001 7.69581 4.37917 6.03748 6.03751C4.37914 7.69584 3.54998 9.68334 3.54998 12C3.54998 14.3333 4.37914 16.325 6.03748 17.975C7.69581 19.625 9.68331 20.45 12 20.45Z" fill="white"/>
</svg>
