<svg width="44" height="50" viewBox="0 0 44 50" fill="none" xmlns="http://www.w3.org/2000/svg">
<path d="M6.97 14.1923C5.87417 13.0965 4.24117 12.7635 2.80155 13.3544C1.36192 13.9452 0.437988 15.3311 0.437988 16.8889V50.0002H8.08732V26.1391L31.7444 49.8821L31.8626 50.0002H42.6597L6.97 14.1923Z" fill="url(#paint0_linear_1214_1544)"/>
<path d="M6.97 25.0859C5.87417 23.9901 4.24117 23.657 2.80155 24.2479C1.36192 24.8388 0.437988 26.2247 0.437988 27.7825V49.9999H8.08732V37.0326V26.1388L6.97 25.0859Z" fill="url(#paint1_linear_1214_1544)"/>
<path d="M42.982 16.7598C42.0259 7.35926 33.7749 0 23.7835 0H0.437988V7.64933H23.7728H31.4758C37.2665 7.63859 42.0688 11.5707 42.982 16.7598Z" fill="url(#paint2_linear_1214_1544)"/>
<path d="M34.7741 33.8956C36.1492 32.8643 37.3847 31.6718 38.4698 30.3611C41.0267 27.2562 42.6705 23.5282 43.0035 19.8862C43.0465 19.4242 43.068 18.973 43.068 18.5218C43.068 18.2102 43.0573 17.8987 43.0465 17.5871C43.0465 17.5656 43.0465 17.5549 43.0465 17.5334C43.0358 17.2541 43.0143 16.9855 42.982 16.7169C42.0689 11.5278 37.288 7.63867 31.5188 7.63867H23.2463C29.6709 7.63867 35.4294 12.4625 35.4294 18.5003C35.4294 18.511 35.4294 18.511 35.4294 18.5218C35.4294 18.5325 35.4294 18.5325 35.4294 18.5433C35.4294 21.9704 32.8402 26.1926 29.4131 28.3628L29.0156 28.6099L34.4947 34.0998L34.7741 33.8956Z" fill="url(#paint3_linear_1214_1544)"/>
<defs>
<linearGradient id="paint0_linear_1214_1544" x1="0.437258" y1="31.5332" x2="42.651" y2="31.5332" gradientUnits="userSpaceOnUse">
<stop offset="0.1948" stop-color="#35A0DB"/>
<stop offset="0.8873" stop-color="#055D93"/>
</linearGradient>
<linearGradient id="paint1_linear_1214_1544" x1="4.06436" y1="50.0646" x2="4.51992" y2="23.9657" gradientUnits="userSpaceOnUse">
<stop offset="0.0463353" stop-color="#4AB1A6"/>
<stop offset="0.8562" stop-color="#21488E"/>
</linearGradient>
<linearGradient id="paint2_linear_1214_1544" x1="0.437" y1="8.37716" x2="42.98" y2="8.37716" gradientUnits="userSpaceOnUse">
<stop offset="0.096875" stop-color="#14A39F"/>
<stop offset="0.6354" stop-color="#6AD3BF"/>
</linearGradient>
<linearGradient id="paint3_linear_1214_1544" x1="33.1592" y1="34.1012" x2="33.1592" y2="7.63947" gradientUnits="userSpaceOnUse">
<stop offset="0.2762" stop-color="#00A2B3"/>
<stop offset="0.8566" stop-color="#006581"/>
</linearGradient>
</defs>
</svg>
