<svg width="241" height="24" viewBox="0 0 241 24" fill="none" xmlns="http://www.w3.org/2000/svg">
<path d="M58.0339 0H53.7476V23.7913H58.0339V0Z" fill="white"/>
<path d="M109.95 0V17.9639V17.9799L109.533 17.4341L95.9035 0H91.8741V23.8395H95.7269V6.59799V5.89164L96.1604 6.45351L109.774 23.8395H113.803V23.5505V22.9244V0H109.95Z" fill="white"/>
<path d="M47.7109 3.40334V0H27.2587V3.40334V12.5057V23.8074H47.7109V20.404H31.4326H31.1918V20.1632V13.7097V13.4689H31.4326H46.1055V10.0656L31.1918 10.0816V3.40334H47.7109Z" fill="white"/>
<path d="M17.7552 13.4528C19.2482 13.1799 20.388 12.4736 21.1906 11.3819C21.9933 10.2742 22.3946 8.74916 22.3946 6.80669C22.3946 4.52709 21.8488 2.80937 20.7411 1.68562C19.6334 0.561873 18.0923 0 16.1017 0H0V23.9358H4.30234V13.5973H11.4462L16.9043 23.9839H21.8007L16.0696 13.5331C17.097 13.501 17.7552 13.4528 17.7552 13.4528ZM4.30234 9.90502V3.67625H15.604C16.3906 3.67625 17.0007 4.14181 17.4181 4.5592C17.8355 4.99264 18.301 5.7311 18.301 6.80669C18.301 7.85017 17.8515 8.58863 17.4181 9.03813C17.0007 9.47157 16.3906 9.93713 15.604 9.93713L4.30234 9.90502Z" fill="white"/>
<path d="M210.606 13.4528C212.099 13.1799 213.239 12.4736 214.042 11.3819C214.844 10.2742 215.246 8.74916 215.246 6.80669C215.246 4.52709 214.7 2.80936 213.592 1.68562C212.484 0.561873 210.943 0 208.953 0H192.851V23.9518H197.153V13.6134H204.297L209.755 24H214.652L208.921 13.5492C209.964 13.501 210.606 13.4528 210.606 13.4528ZM197.169 9.90502V3.67625H208.455C209.242 3.67625 209.852 4.14181 210.269 4.5592C210.686 4.99264 211.152 5.7311 211.152 6.80669C211.152 7.85017 210.702 8.58863 210.269 9.03813C209.852 9.47157 209.242 9.93712 208.455 9.93712L197.169 9.90502Z" fill="white"/>
<path d="M173.7 23.9841C170.361 23.9841 167.744 22.9728 165.914 20.9821C164.084 18.9754 163.153 15.9574 163.153 11.9761C163.153 8.02694 164.084 5.00888 165.914 3.01824C167.744 1.02761 170.425 0.0162354 173.877 0.0162354H177.264C180.732 0.0162354 183.412 1.02761 185.227 3.01824C187.057 5.02493 187.988 8.04299 187.988 11.9761C187.988 15.9413 187.057 18.9754 185.227 20.9821C183.396 22.9728 180.764 23.9841 177.392 23.9841H173.7ZM174.182 3.88513C172.143 3.88513 170.522 4.35068 169.382 5.28179C168.226 6.21289 167.68 7.96272 167.375 9.98547C167.359 10.0657 167.086 11.5908 167.375 13.9507C167.68 15.9895 168.226 17.7072 169.382 18.6544C170.538 19.5855 172.175 20.0671 174.278 20.0671H176.991C179.046 20.0671 180.667 19.5855 181.807 18.6544C182.947 17.7233 183.589 15.9092 183.878 13.8704C184.151 11.5106 183.894 9.98547 183.878 9.9052C183.589 7.88246 182.947 6.22895 181.791 5.29784C180.635 4.36674 179.03 3.90119 176.991 3.90119H174.182V3.88513Z" fill="white"/>
<path d="M240.58 3.40334V0H220.128V3.40334V12.5057V23.8074H240.58V20.404H224.302H224.061V20.1632V13.7097V13.4689H224.302H238.975V10.0656L224.061 10.0816V3.40334H240.58Z" fill="white"/>
<path d="M146.794 23.8072C143.326 23.8072 140.677 22.8119 138.831 20.8052C137.001 18.7985 136.07 15.8286 136.07 11.8955C136.07 7.97848 136.985 5.00858 138.831 3.00189C140.661 0.995203 143.326 -0.000115331 146.794 0.0159382L158.288 0.0801522V4.28617H147.083C144.803 4.28617 143.117 4.89621 142.01 6.08417C140.902 7.28818 140.356 9.23066 140.356 11.8955C140.356 14.5604 140.902 16.5029 142.01 17.723C143.117 18.943 144.803 19.537 147.083 19.537H158.288V23.8072H146.794Z" fill="white"/>
<path d="M75.8696 3.91706H85.8709V0H75.5325C71.6475 0 68.6616 1.01137 66.6388 3.01806C64.6161 5.02475 63.5887 8.02676 63.5887 11.9759C63.5887 15.9411 64.6 18.9592 66.5746 20.9659C68.5652 22.9726 71.3746 23.9839 74.9224 23.9839H81.5846H82.3231H85.8709V22.3465V20.099V11.8796C85.8709 10.5472 84.7793 9.45552 83.4468 9.45552H75.9017V13.3565H81.3438H81.5846V13.5973V20.0829L74.6816 20.0508C72.4984 19.9385 70.8288 19.2161 69.689 17.9318C68.5652 16.6475 67.9873 14.6408 67.9873 11.992C67.9873 9.19866 68.6455 7.12776 69.9298 5.84348C71.2141 4.5592 73.2047 3.91706 75.8696 3.91706Z" fill="white"/>
</svg>
