<svg width="160" height="16" viewBox="0 0 160 16" fill="none" xmlns="http://www.w3.org/2000/svg">
<path d="M38.5958 0H35.7451V15.8227H38.5958V0Z" fill="white"/>
<path d="M73.1242 0V11.9471V11.9578L72.8466 11.5948L63.7821 0H61.1023V15.8548H63.6647V4.38809V3.91832L63.953 4.292L73.0067 15.8548H75.6866V15.6626V15.2462V0H73.1242Z" fill="white"/>
<path d="M31.7312 2.26344V0H18.1292V2.26344V8.31708V15.8334H31.7312V13.57H20.9051H20.7449V13.4098V9.11783V8.95768H20.9051H30.6635V6.69424L20.7449 6.70491V2.26344H31.7312Z" fill="white"/>
<path d="M11.8083 8.947C12.8013 8.7655 13.5593 8.29573 14.0931 7.56972C14.627 6.83303 14.8939 5.81875 14.8939 4.52688C14.8939 3.0108 14.5309 1.86841 13.7942 1.12104C13.0575 0.373681 12.0325 0 10.7086 0H0V15.9188H2.86133V9.04309H7.61242L11.2425 15.9509H14.4988L10.6873 9.00039C11.3706 8.97903 11.8083 8.947 11.8083 8.947ZM2.86133 6.58747V2.44494H10.3777C10.9008 2.44494 11.3065 2.75457 11.5841 3.03216C11.8617 3.32043 12.1713 3.81155 12.1713 4.52688C12.1713 5.22086 11.8724 5.71199 11.5841 6.01093C11.3065 6.2992 10.9008 6.60882 10.3777 6.60882L2.86133 6.58747Z" fill="white"/>
<path d="M140.066 8.947C141.059 8.7655 141.817 8.29573 142.351 7.56972C142.885 6.83303 143.152 5.81875 143.152 4.52688C143.152 3.0108 142.789 1.86841 142.052 1.12104C141.316 0.373681 140.291 0 138.967 0H128.258V15.9295H131.119V9.05377H135.87L139.501 15.9615H142.757L138.945 9.01106C139.639 8.97903 140.066 8.947 140.066 8.947ZM131.13 6.58747V2.44494H138.636C139.159 2.44494 139.565 2.75457 139.842 3.03216C140.12 3.32043 140.429 3.81155 140.429 4.52688C140.429 5.22086 140.13 5.71199 139.842 6.01093C139.565 6.2992 139.159 6.60882 138.636 6.60882L131.13 6.58747Z" fill="white"/>
<path d="M115.521 15.9509C113.3 15.9509 111.56 15.2783 110.343 13.9544C109.126 12.6198 108.507 10.6126 108.507 7.96482C108.507 5.33837 109.126 3.33117 110.343 2.00727C111.56 0.683369 113.343 0.0107422 115.639 0.0107422H117.891C120.197 0.0107422 121.98 0.683369 123.187 2.00727C124.404 3.34185 125.023 5.34905 125.023 7.96482C125.023 10.6019 124.404 12.6198 123.187 13.9544C121.97 15.2783 120.219 15.9509 117.977 15.9509H115.521ZM115.841 2.58381C114.486 2.58381 113.407 2.89343 112.649 3.51267C111.88 4.13192 111.517 5.29567 111.315 6.64092C111.304 6.6943 111.122 7.70858 111.315 9.27804C111.517 10.634 111.88 11.7764 112.649 12.4063C113.418 13.0255 114.507 13.3458 115.905 13.3458H117.71C119.076 13.3458 120.155 13.0255 120.913 12.4063C121.671 11.787 122.098 10.5806 122.29 9.22466C122.472 7.6552 122.301 6.64092 122.29 6.58754C122.098 5.24228 121.671 4.14259 120.902 3.52335C120.133 2.9041 119.066 2.59448 117.71 2.59448H115.841V2.58381Z" fill="white"/>
<path d="M160 2.26344V0H146.398V2.26344V8.31708V15.8334H160V13.57H149.174H149.014V13.4098V9.11783V8.95768H149.174H158.932V6.69424L149.014 6.70491V2.26344H160Z" fill="white"/>
<path d="M97.6268 15.8336C95.3207 15.8336 93.5591 15.1717 92.3312 13.8371C91.1141 12.5025 90.4949 10.5273 90.4949 7.91156C90.4949 5.30647 91.1034 3.3313 92.3312 1.99672C93.5484 0.662143 95.3207 0.000192677 97.6268 0.0108693L105.271 0.0535757V2.85085H97.819C96.3029 2.85085 95.1819 3.25656 94.4452 4.04663C93.7085 4.84738 93.3455 6.13925 93.3455 7.91156C93.3455 9.68388 93.7085 10.9758 94.4452 11.7872C95.1819 12.5986 96.3029 12.9936 97.819 12.9936H105.271V15.8336H97.6268Z" fill="white"/>
<path d="M50.4576 2.60509H57.1092V0H50.2334C47.6497 0 45.6638 0.672627 44.3186 2.0072C42.9733 3.34178 42.29 5.33831 42.29 7.96475C42.29 10.6019 42.9627 12.6091 44.2759 13.9437C45.5998 15.2782 47.4682 15.9509 49.8277 15.9509H54.2585H54.7496H57.1092V14.8618V13.3671V7.90069C57.1092 7.01453 56.3832 6.28853 55.497 6.28853H50.479V8.88294H54.0984H54.2585V9.04309V13.3564L49.6676 13.3351C48.2156 13.2604 47.1052 12.7799 46.3472 11.9258C45.5998 11.0716 45.2154 9.73707 45.2154 7.97543C45.2154 6.1177 45.6532 4.74042 46.5073 3.88629C47.3614 3.03216 48.6853 2.60509 50.4576 2.60509Z" fill="white"/>
</svg>
